<svg version="1.1" xmlns="http://www.w3.org/2000/svg" xmlns:xlink="http://www.w3.org/1999/xlink" width="158.14407" height="359.11553" viewBox="0,0,158.14407,359.11553"><g transform="translate(-321.25,0.52267)"><g data-paper-data="{&quot;isPaintingLayer&quot;:true}" fill-rule="nonzero" stroke-width="0.5" stroke-linejoin="miter" stroke-miterlimit="10" stroke-dasharray="" stroke-dashoffset="0" style="mix-blend-mode: normal"><path d="M330.5,356.5c-2.5,0 -2.5,-2.5 -2.5,-2.5l0.12829,-2.79057c1.43142,-4.13264 1.27143,-8.34474 1.90399,-12.60989c0.30928,-2.08537 1.66395,-3.91877 2,-6c0.15429,-0.95551 -0.15228,-1.9457 -0.01372,-2.90362c0.58959,-4.07629 2.35262,-8.08267 3.01372,-12.09638c0.48858,-2.96632 0.49878,-6.03199 0.99925,-8.99535c0.44943,-2.66116 1.72028,-5.16429 1.98064,-7.85054c0.31808,-3.28193 -0.17222,-6.59868 -0.00834,-9.89191c0.29892,-6.00669 0.99617,-11.81626 0.99617,-17.86175c0,-7.83664 0.38432,-15.3915 1.00629,-23.17722c0.6251,-7.82486 -0.00629,-15.96976 -0.00629,-23.82278c0,-16.33334 0,-32.66666 0,-49c0,-6.25502 0.2962,-12.5985 0.00483,-18.84465c-0.12523,-2.6845 -0.83301,-5.31778 -1,-8c-0.64229,-10.31673 0.42652,-20.73948 -0.09628,-31.07006c-0.11843,-2.34026 -0.80174,-7.67404 -0.90598,-9.972c-0.44171,-9.73772 0.07372,-19.25695 -0.99874,-28.97504c0.00082,-4.56879 -0.71993,-8.54501 -0.99928,-13.08173c-0.30329,-4.92552 0.48865,-9.99541 -0.01139,-14.90331c-0.16907,-1.6594 -0.8186,-3.2468 -0.98098,-4.90687c-0.71029,-7.26156 -0.01216,-14.94413 -0.01216,-22.24634c0,-7.83859 -0.79886,-15.97532 1.07464,-23.60634c0,0 0.60634,-2.42535 3.0317,-1.81901c2.42536,0.60634 1.81902,3.0317 1.81902,3.0317c-1.82711,7.15899 -0.92536,15.02236 -0.92536,22.39366c0,7.13116 -0.72298,14.66571 -0.01216,21.75366c0.16618,1.65704 0.81541,3.24177 0.98019,4.89894c0.49553,4.98373 -0.28058,10.09974 0.02707,15.09664c0.27793,4.51413 1.00027,8.55904 1.00108,13.11252c1.08927,9.7336 0.5589,19.27307 1.00126,29.02496c0.15085,3.32555 0.73647,6.62114 0.90473,9.94586c0.5218,10.31095 -0.54798,20.71624 0.09301,31.01208c0.16699,2.68222 0.87167,5.31564 1,8c0.30352,6.34877 0.00483,12.79734 0.00483,19.15535c0,16.33334 0,32.66666 0,49c0,7.97616 0.61516,16.22761 -0.00629,24.17722c-0.5996,7.67006 -0.99371,15.10165 -0.99371,22.82278c0,6.13495 -0.7027,12.04367 -1.00383,18.13825c-0.04309,0.8721 0.0597,9.43357 -0.00834,10.10809c-0.28086,2.78451 -1.56275,5.38832 -2.01936,8.14946c-0.49099,2.96902 -0.50093,6.03787 -1.00075,9.00465c-0.6675,3.96208 -2.41349,7.88673 -2.98628,11.90362c-0.14571,1.0218 0.16033,2.07903 -0.01372,3.09638c-0.35551,2.07799 -1.71434,3.91126 -2,6c-0.62802,4.592 -0.64822,8.9119 -2.09601,13.39011l0.12829,1.20943c0,0 0,2.5 -2.5,2.5z" fill="#000000" stroke="none" stroke-linecap="butt"/><path d="M357.5,7l34,141" fill="none" stroke="#000000" stroke-linecap="round"/><path d="M321.5,358.34286v-358.34286h157.64407v358.34286z" fill="#000000" stroke="#000000" stroke-linecap="butt"/><path d="" fill="#000000" stroke="none" stroke-linecap="butt"/></g></g></svg>